<svg preserveAspectRatio="none" overflow="visible" style="display: block;" width="266.717" height="98.8566" viewBox="0 0 266.717 98.8566" fill="none" xmlns="http://www.w3.org/2000/svg">
<g id="Group 1000005886">
<g id="Group">
<path id="Vector" d="M145.601 22.1282H152.279V68.2831H174.407V73.9134H145.601V22.1282Z" fill="white"/>
<path id="Vector_2" d="M188.548 45.1729V73.9133H181.87V45.1729H188.548Z" fill="white"/>
<path id="Vector_3" d="M200.201 22.1282H228.091V27.7585H206.879V44.9765H226.454V50.5413H206.879V73.9788H200.201V22.1937V22.1282Z" fill="white"/>
<path id="Vector_4" d="M264.425 49.6247H244.261V68.2831H266.717V73.9134H237.583V22.1282H265.538V27.7585H244.261V44.1255H264.425V49.6902V49.6247Z" fill="white"/>
</g>
<path id="Vector_5" d="M164.979 0.196396C164.652 0.196396 164.39 0.32734 164.324 0.32734C127.793 12.177 114.765 16.7598 84.8465 34.1743L83.4716 34.9599L82.2278 33.9124L60.7543 15.1231C58.8557 13.4209 56.2369 12.3735 55.3204 12.3735H40.1974L71.0327 39.2808L73.3241 41.3102L70.7053 42.8815C41.9649 60.4924 30.2462 70.8363 0.720211 98.1364C0.458339 98.3328 0.261872 98.5947 0 98.8566C28.4785 81.3766 49.6902 68.4795 81.4422 50.3448L82.8169 49.5592L83.9954 50.6067L105.142 69.265C107.04 70.9017 109.659 72.0147 110.575 72.0147H125.698L94.9285 45.1074L92.6371 43.1434L95.1904 41.5067H95.3213C120.396 25.9908 139.839 14.7303 164.521 0.392792C164.652 0.392792 164.783 0.196404 164.979 0V0.196396Z" fill="white"/>
</g>
</svg>
